# xmcd CD database file generated by Grip 2.91
# 
# Track frame offsets:
#       150
#       20930
#       35302
#       56250
#       75127
#       89017
#       108410
#       122402
#       136712
#       149425
#       171437
#       193037
#       205450
# 
# Disc length: 2900 seconds
# 
# Revision: 3
# Processed by: cddbd v1.4b39PL1 Copyright (c) 1996-1997 Steve Scherf
# Submitted via: Grip 2.91
# 
DISCID=b00b520d
DTITLE=Disappear Fear / Live At The Bottom Line
TTITLE0=Sink The Censorship
TTITLE1=16 Roses
TTITLE2=Love Isn't Dead
TTITLE3=Postcard From Texas
TTITLE4=Love Insurance
TTITLE5=Box Of Tissues
TTITLE6=Sexual Telepathy
TTITLE7=One More Chance
TTITLE8=Red Heaven
TTITLE9=Sink The Censorship (2)
TTITLE10=Box Of Tissues (2)
TTITLE11=Damn Crazy
TTITLE12=Long Long Way To Go
EXTD=
EXTT0=
EXTT1=
EXTT2=
EXTT3=
EXTT4=
EXTT5=
EXTT6=
EXTT7=
EXTT8=
EXTT9=
EXTT10=
EXTT11=
EXTT12=
PLAYORDER=
